<svg version="1.0" xmlns="http://www.w3.org/2000/svg" width="3528" height="3528" viewBox="0 0 2646 2646"><path d="M1261.7 556.6c-.1.1-5.4.4-11.7.8-6.3.3-12.6.8-14 1.1-1.4.3-3.8.7-5.5 1-31.1 4.5-65.8 18.9-94 38.9-34.7 24.7-67.1 61.1-92.9 104.6-8.7 14.5-25.6 49.1-25.6 52.2 0 .4 3.3 6.7 7.3 14 4.1 7.3 7.9 14.3 8.5 15.5 1.1 2 .6 2.5-7.1 6.9-4.5 2.6-12.4 7.6-17.5 11.2-23 15.9-27.3 23.3-27.4 47.5l-.1 11.8-6.9 7.2c-23.9 24.9-76.3 92.7-98.5 127.4-6.2 9.7-10.9 20.6-11.9 27.6-3.4 23.3-2.4 58.7 2.7 101.4l.9 8.1-5.7 5.9c-9.1 9.2-13.2 18.7-15.9 37.3-1.2 8.5-.6 30 1.1 37.8 1.5 6.6 7.2 18.5 9.9 20.5.8.6.7 1-.2 1.4-3.6 1.4-17.6 13-24.7 20.5-14 14.6-24.3 28.5-42.1 56.8-17.1 27.2-26.6 38.6-39.7 47.5-6.4 4.4-6.4 4.4-3.2 15.3l1.5 4.9 7.2-.2c4-.2 8.7-.5 10.3-.8 1.7-.4 4.5-.9 6.4-1.2 1.8-.3 6.5-1.7 10.4-3 3.9-1.4 7.3-2.3 7.5-2 .3.3-2.4 3.3-6 6.7-5.6 5.4-25.3 18.6-49 32.9-3.6 2.1-4.3 3-4.2 5.5.1 1.6.2 5 .3 7.5l.1 4.6 7.8 3.5c19.3 8.8 34.6 11.7 58.9 11.4 11.8-.1 17 .1 16.5.9-.3.5-3.9 5.8-7.9 11.7-4 5.8-7.3 11-7.3 11.5 0 .4.6.1 1.3-.7 2.2-2.9 7.2-5.8 11-6.5l3.7-.7-10.3 16.6c-5.6 9.1-10.7 17.4-11.2 18.4-.6.9-1.7 2.8-2.6 4.2-.9 1.4-5.1 8.1-9.4 15-13.8 22.1-36.2 54.5-41.9 60.7-.6.6-2.9 3.3-5.1 5.9-7.3 8.8-24.3 26.3-33 33.9-22.6 19.8-41.8 34.5-96.8 74.4-30.1 21.8-45.7 36-60.2 54.5-1.6 2.1-3.8 4.8-4.7 6-1 1.1-2.1 2.5-2.6 3.1-11.9 15-19.1 23.5-25.7 30.1-8.6 8.6-8.3 7.9-8.9 20.1-.1 3.2.5 3.7 6.4 4.9.9.2 5.6 1.4 10.5 2.8 59.3 16.2 99.5 34.4 106.6 48.2 1.9 3.8 1.6 8.5-.7 12.2-1.4 2.1-5.9 5.3-13.2 9.3-8.6 4.7-10.7 13.9-5.6 24.3 3.1 6.3 15.5 21.8 22.5 28.1 13.3 11.9 19.4 17 25.1 21.2 3.5 2.5 6.5 4.9 6.8 5.2.8 1 20.7 14.4 28.5 19.1 25.1 15.3 45.8 21.5 54.8 16.3 5.1-3 6.9-7.3 7.4-17.2.8-15.3 4-26.6 8.4-29.4 3.9-2.4 15.2 3 26.5 12.8 8.5 7.3 9.4 8.3 9.5 10.5.1 1.1.2 2.3.3 2.7.1.5.6 3.5 1 6.8.4 3.2 1 6.8 1.2 8 .2 1.1.7 4.6 1.1 7.7.5 5 .3 5.8-1 5.8-.9 0-3.1 1.3-4.9 2.9-2.8 2.5-3.2 3.4-2.9 7.2.2 5 3.3 8.9 9.4 12 2 1.1 3.8 2.5 3.9 3.2 0 .6.2 1.6.3 2.2 0 .5.5 3.2.9 6 .4 2.7.9 6.1 1.1 7.5.8 5.1 3.5 23.6 3.9 27 .7 5.1 1.6 11.1 2.1 14 .3 1.4.7 4.7 1 7.5.3 2.7.8 6.1 1 7.5.6 3 1 5.8 2.5 16.5.6 4.4 1.4 9.3 1.6 11 .3 1.6.7 4.3.9 6 .2 1.6 1.7 12.4 3.4 24 1.7 11.5 3.4 22.8 3.6 25 .3 2.2.7 4.7.9 5.5.3.8.7 4.2 1.1 7.5.3 3.3.8 6.7 1 7.5.2.8.7 3.7 1 6.4.3 2.7.7 5.9 1 7 .2 1.2.7 3.9 1 6.1 1.2 8.9 1.7 11.2 3.7 16.5 2.9 7.6 7.8 14.8 14.1 20.8 5.7 5.3 11.9 8.8 25.8 14.5 4.6 1.9 30.7 12.8 57.9 24.2 27.2 11.4 52.9 22.1 57 23.7 4.1 1.7 7.6 3.2 7.8 3.4.2.1-.3 3.8-1.2 8.1-.8 4.3-1.8 10.9-2.1 14.7-.6 8 .6 5.9-26.5 46.1l-18.8 27.9 3.4 6.8 3.4 6.8 6.3.1c3.4.1 7.6.2 9.2.4 1.7.1 9.1.6 16.5.9 7.4.4 16 .9 19 1.1 3 .2 11.1.6 18 .9 6.9.4 15.2.9 18.5 1.1 3.3.3 11.2.7 17.5 1 14.2.7 24.6 1.2 37 2 5.2.3 13.6.8 18.7 1.1l9.2.5 2.7-5.3c1.4-2.9 2.8-5.5 3-5.6.1-.2 4.4.6 9.4 1.8 13.8 3.2 36.6 7.3 47.5 8.5 6 .7 11.4 1.4 14 1.9 4.4.8 18.7 2.2 34 3.2 5.5.3 12.3.8 15 1 6.4.4 54.1.4 62 0 20.6-1.2 28.3-1.7 30.5-2.1 1.4-.2 5.7-.6 9.5-1 3.9-.3 8.1-.8 9.5-1 1.4-.2 4.5-.6 7-.9 2.5-.4 8.9-1.3 14.2-2 5.4-.8 11.4-1.2 13.5-1.1 2.1.2 9.4.6 16.3 1 6.9.3 16.4.8 21.1 1.1l8.5.5 2.4-5.1c1.3-2.8 2.7-5.3 3.1-5.6.4-.2 2.9.1 5.6.7 2.6.6 5.7 1.3 6.8 1.5 1.1.2 3.1.6 4.5.9 5.2 1.2 28.7 5.6 32 6 1.9.2 5.5.7 8 1 30 4 33.3 4.3 62 6 7.7.5 54 .5 63 .1 20.7-1.1 37.6-2.5 49-4.1 1.4-.2 5.2-.7 8.5-1.1 3.3-.3 6.9-.8 8-1 1.1-.2 6-.9 10.8-1.6 8.8-1.2 8.9-1.2 8.3-3.7-5.9-27-11.4-43.5-20.9-62.6-17.2-34.8-43.3-60.3-74.8-73.2l-6.5-2.7-1.3-8.1c-2.4-15.7-10.6-35.2-20.1-47.9-2.1-2.8-7.3-8.7-11.6-13.1-15.4-15.7-14.1-13-14.9-30.1-.4-8.2-.8-17.8-1-21.4-.3-6.9-1.5-24.2-2-30-.2-1.9-.6-7.6-.9-12.5-1.2-17-2.7-30.5-5.1-46.4-1.4-9.2-1.8-11.4-3.1-19.1-1-5.7-1.2-7.3-1.8-11-.5-3.4-4.4-23.4-5-25.5-.1-.6-1.1-3.6-2-6.8l-1.8-5.8 3.2-3.2c4-4 14.4-17.8 14.8-19.5.1-.7.5-2.9.8-5 .3-2 .9-6.2 1.4-9.2.6-3 1.2-7.3 1.5-9.5.3-2.2.7-5.1 1-6.5.3-1.4.8-4.8 1.1-7.5.3-2.8.8-5.3.9-5.6.2-.3.7-2.8 1.1-5.5.9-7 2-8.7 13.4-20.4 19.5-20.1 22.8-24.9 31.9-46.3 6.8-15.6 17.8-47.4 25.1-72 1.3-4.2 2.8-7.7 3.4-7.7 1.7 0 15.5 4.5 20.6 6.8 2.5 1 6.6 2.9 9.3 4.1 11.5 5.3 23.7 4.7 30.8-1.5 1.3-1.2 2.8-.7 11 3.5 8.7 4.6 23.4 10.1 30.4 11.5 6.7 1.4 8.2 1.6 13 2.3 5.7.8 15.9.9 19.2.2 3.7-.8 7.8-4.4 11.6-10.2 2.2-3.2 4.9-5.9 6.7-6.7 4.5-1.9 14.1-1.7 27 .6 1.4.2 4.8.7 7.5 1 2.8.3 5.3.8 5.8 1.1.4.2 7.1.6 15 .8 22.9.7 26.7-1.6 43.1-25.7 3.3-4.9 4.4-5.8 7-5.9 42.8-.8 42.3-.7 51.1-3.6 9-2.9 13.6-6.7 21.5-17.6 2.2-3.1 4.1-4.7 5.5-4.7 1.2 0 7.7 3.2 14.6 7.1 6.8 4 14.2 8.2 16.4 9.4 2.2 1.3 13 7.5 24 13.8 16.4 9.5 20.2 11.3 21.6 10.3.9-.6 7-6.1 13.5-12.3 6.5-6.1 13-12.1 14.4-13.3 1.4-1.2 5.1-4.7 8.4-7.8l5.8-5.6-.6-6.5c-.3-3.7-.8-12-1.2-18.6l-.7-12 3.5-1.7c5.3-2.5 15.7-12.6 17.7-17.2 3.7-8.4 3.5-7.8 5.6-18.1.9-4.4 1.9-12.7 2.3-18.5 1.2-19.1.5-65.3-1.2-83.5-.2-1.7-.7-6.4-1-10.5-.4-4.1-.9-8.6-1.1-10-.2-1.4-.9-5.9-1.4-10-2-13.9-4.1-23.9-5.3-24.6-.4-.3-.8-1.4-.8-2.5 0-3-9.1-11.5-15.2-14.3-2.9-1.3-7.9-3.2-11-4.1-4.9-1.4-5.6-1.9-5.2-3.8.2-1.1.5-3.6.6-5.5.3-3.9.2-3.9 8.3-4.6 5.1-.5 25.4-2.6 40-4.1 2.2-.3 12.8-1.4 23.5-2.5s21.1-2.2 23-2.5c1.9-.2 6.4-.7 10-1.1 6.6-.7 9.9-1 11.3-1.3.4 0 .5-1.3.3-2.9-.4-2.6-.9-8.1-2.1-22.2-.3-3.6-1-11.9-1.5-18.5-.6-6.6-1.3-15.2-1.5-19-.3-3.9-.8-8.8-1-11-.3-2.2-.8-8.1-1.1-13-.4-5-.8-9.7-.9-10.5-.3-1.7.6-1.7-19 .5-15 1.7-17.5 2-27.5 3-3.6.4-7.2.9-8.1 1-.9.2-5.2.6-9.5 1s-8.7.9-9.7 1.1c-.9.1-5.4.6-9.9 1l-8.1.7.6-2.5c.4-1.4.9-4.3 1.3-6.4.3-2.1 2.8-17.4 5.5-33.9s5.2-31.4 5.5-33c.2-1.7.6-4.1.9-5.5.5-2.5.9-5.2 2-12.4.4-2.1.9-4.8 1.1-6 .2-1.1.7-4.1 1-6.6.3-2.5.7-5.2.9-6 .2-.8.6-2.9.9-4.5.3-1.7 1.4-8.4 2.5-15s2.2-13.8 2.6-16c.3-2.2 1.5-9.2 2.6-15.5 1.1-6.3 2.2-13.1 2.5-15 .3-1.9 1.1-7.1 1.9-11.5.8-4.4 1.7-9.8 2-12 .3-2.2 1-6.8 1.6-10.3.6-3.5 1-6.4.8-6.6-.2-.1-3.1-1.3-6.4-2.5l-6-2.2-1.5 2.3c-4.3 6.6-24.6 28.6-25.5 27.6-3.1-3.3-10.8-21.8-13-31.4-3.7-15.8-4.9-21.6-6.5-31.3-3.8-23.3-4.5-32.4-4.4-54.6 0-11.5.5-20.2 1.4-24 .7-3.3 1.5-6.5 1.6-7 1.1-5 5.8-10.8 9.6-12.1 7.7-2.4 19.7 8.2 30.3 26.8 2.3 4 4.3 6.5 5.2 6.2.7-.2 2.1-.7 3.1-1.1 2.3-.8 2.3-.8 5.5-1.7 3-.9 3 0 1.2-16.9-.8-7.5-1.4-13.7-2-20.2-.3-3.3-.8-7.6-1-9.5-.6-4.7-1.3-11.6-2.4-23.5-1.9-19.3-2.3-23-2.6-24.5-.2-.8-.6-5.1-1-9.5-.3-4.4-.8-9.1-1-10.5-.2-1.4-.6-5.7-1-9.5-.3-3.9-.8-8.1-1-9.5-.2-1.4-.6-6.1-1-10.5-.3-4.4-.8-9.4-1-11-.7-5.7-1.4-12-2-19-.3-3.9-.8-8.1-1-9.5-.3-1.4-.7-5.4-1-9-.7-7.8-1.4-15.2-2-20-.2-1.9-.7-6.1-1-9.3-.9-9.4-1.6-17-2-20.7-.4-3.7-1.3-12.8-2-19.5-.2-2.2-.9-8.5-1.5-14-.5-5.5-1.3-12.7-1.6-15.9l-.5-5.9-22.4-22.6c-12.3-12.4-29.5-29.9-38.2-38.8-21.7-22.2-107.2-109-115.7-117.4-8-8-6.5-8.7-14.6 6.6-9.1 17.2-13 24.4-23.5 44-2.1 3.8-5.5 10.1-7.5 14-2 3.8-5.3 9.9-7.2 13.5-1.9 3.6-5.7 10.5-8.3 15.5-2.6 4.9-6 11.2-7.5 14-1.5 2.7-4.8 8.8-7.3 13.5-2.4 4.7-9.2 17.3-14.9 28-5.8 10.7-13.1 24.4-16.3 30.5-3.2 6-6.5 12.3-7.5 14-1 1.6-4.1 7.5-7 13-3 5.5-6.2 11.5-7.2 13.4-2 3.5-2 7.4.2 18.1.5 2.5 1.1 6.3 1.4 8.5.3 2.2.8 5.1 1 6.5.2 1.4.7 4.6 1 7.1.4 2.5.8 5.7 1 7 .3 1.3.7 4.5 1 7 .4 2.5.8 5.7 1 7 .7 3.9 1.6 11.2 2.2 16 .3 2.4.7 5.5.9 6.8.2 1.3.7 4.5 1.1 7 .3 2.5.7 5.6.9 6.7.2 1.2.6 4.8 1 8 .4 3.3.9 7 1.1 8.4.2 1.4.6 5.4 1 9 .3 3.6.7 7.2.9 8 .2.8.6 4.6 1 8.5.4 3.8.9 7.7 1 8.5.7 3.8 1.5 10 2 15.5.4 3.3.8 7.3 1 9 .2 1.6.6 5.9 1 9.5.3 3.6.8 8.1 1 10 .2 1.9.7 6.2 1 9.5.8 8.8 1.3 14.2 2 21.4.8 7.5 1.2 11.8 2 22.6.4 4.4.8 9.6 1 11.5.2 1.9.6 7.8 1 13s.8 9.6 1 9.8c.2.2 2.9 1 6.2 1.7 6.6 1.6 5.5 2.3 12.4-8.2 24-36.7 45.3-20.9 45.3 33.7 0 9.4-1 26.4-1.9 33-.2 1.4-.6 5.2-1 8.5-.4 3.2-.9 6.8-1.1 8-.2 1.1-.6 3.4-.9 5.2-.2 1.8-.9 5.9-1.5 9.3-.6 3.3-1.3 7.2-1.6 8.7-1.4 7.7-4.6 18.1-6.3 20.3-3.2 4.4-10.5 3.7-17.8-1.8-2.9-2.1-3.4-2.2-4.7-.9-.9.8-3.2 2.5-5.2 3.7-2.7 1.7-3.5 2.8-3.1 4.4.5 2 29.1 87.5 30.4 90.6.3.8.7 1.9.9 2.5.1.5 8.3 24.9 18.2 54 16.6 49.3 17.8 53.1 15.8 53.2-8 .4-46 1.5-59.6 1.8-9.1.2-16.8.3-17.2.4-.3.1-.4 10.1-.2 22.3 1 45.7 1.2 57.5 1.3 66.6l.1 9.4 9.8-.7c5.3-.4 9.9-.9 10.2-1 .3-.2 4.8-.6 10-1s10.3-.9 11.2-1c1-.2 5.5-.7 10.1-1 4.5-.4 8.9-.8 9.7-1 .8-.3 5.3-.7 10-1 4.7-.4 9.6-.8 11-1.1 1.4-.2 5.9-.6 10-1 4.1-.3 8.3-.7 9.5-.9 1.8-.3 1.7-.2-.4 1.3-1.4.9-5.6 4.6-9.4 8.2-7.1 6.7-11.2 12.5-12.8 18.3-1 3.6-1.9 4.1-9 5.2-20 3-32.7 4.8-39.4 5.6-4.4.5-9.6 1.1-11.5 1.4-1.9.2-6.2.7-9.5 1-3.3.4-7.1.8-8.5 1-1.4.2-6.5.7-11.5 1-4.9.4-10.6.8-12.5 1-1.9.2-9.1.7-16 1-6.9.4-14.7.8-17.5 1-7.4.6-45.6.6-48.4.1-1.3-.3-4.9-.8-8-1.2-7.8-.8-15.5-3.6-27.6-9.8l-10.4-5.3 2.3-4.9c7.1-15.4 9.1-22.3 8.9-31.3-.2-6.9-2.1-10.8-7.8-15.6-2.6-2.2-5.4-4.7-6.3-5.6-1.8-1.6-12.8-8.5-17.5-10.9-1.5-.7-2.6-1.6-2.4-1.9 1.7-3.1 8.9-18.6 9.2-19.9.2-.9 1.1-4.2 2-7.2 2-7.1 5.2-23 6.1-30 .3-3 .8-6.2.9-7 .2-.8.6-5.1 1-9.5.3-4.4.8-9.8 1-12 2.1-22.7 2.3-35.6.5-41.2-1.8-5.5-7.3-11.7-12.8-14.5-3-1.5-4.7-3-4.6-4.1.1-.9.2-2.9.3-4.5.1-2 1.2-3.4 4.8-5.7 5.3-3.5 24-18.2 29.6-23.4 19-17.6 38.7-40.1 55.3-63.1 8-11.2 24.2-35.8 27.4-41.5 1.1-2.2 3.2-5.8 4.5-8l2.3-4-10.4-20.5c-5.7-11.3-12.3-24.1-14.7-28.5-9.2-17.1-13.2-24.2-16-29-1.6-2.8-3.8-6.4-4.7-8-11.1-19.1-20.3-33.2-30.9-47.5-9-12.1-21.3-25-26.2-27.5l-2.9-1.6-.1-13.7c0-7.5-.2-14.4-.3-15.2-.2-.8-.6-4.4-1-8-.3-3.6-.8-7.9-1.1-9.5-1.9-11.5-1.9-11.2-4.5-21.5-5.8-22.7-14-35.7-33.5-53-14.6-13-44.4-32.6-70-46.1l-13.5-7.1-9.2-11.8c-5.1-6.5-13.1-17-17.8-23.5-18.4-25.3-19.2-26.3-25.5-31.1-8.2-6.2-28.1-15.5-41.7-19.5-5.2-1.4-5.2-1.5-3.8-7.4.5-2.2 1.2-5.6 1.5-7.5.3-1.9 1.7-9.1 3-16s2.7-14.1 3-16c.3-1.9.8-4.2 1-5 .2-.8.6-2.6.9-4 .5-3.3 2.5-14 3-16.6.2-1.2.7-3.7 1-5.5.3-1.9 1-5.9 1.6-8.9.6-3 1.3-6.6 1.6-8 .2-1.4.7-3.5.9-4.8.8-3.6-20.9-24.8-40.5-39.6-4.1-3.1-7.9-6-8.5-6.4-11.6-8.9-40.5-24.7-59.5-32.5-15.5-6.4-41.2-14.1-54.5-16.3-2.2-.4-4.9-.8-6-1-6.1-1.2-16.2-2.4-25-2.9-9.4-.7-24.5-1.2-24.8-.9zm98.9 1658.1c-.4 2.7-.9 6.6-1.1 8.8-.3 2.2-.8 5.8-1.1 8-1.1 7.9-1.3 9.1-1.9 14.6-.3 3.1-.7 6.5-.9 7.5-.2 1.1-.7 4.8-1.1 8.4-.4 3.6-.9 7.2-1 8-.2.8-.6 4.2-1 7.5s-.8 6.9-.9 8.1c-.4 3.3-1.3 4.1-7.7 7.5-6.9 3.7-12.7 9.2-17.7 16.6l-3.4 5.2-3.7-2.4c-2-1.4-7.4-4.1-12.1-6.1-4.7-2-8.7-3.8-8.9-4-.2-.2-.6-2-.8-4.1-1.1-10.6-6.5-27.3-12.1-37.6-1.5-2.8-2.2-5.1-1.6-5.6.5-.4 4.4-3.5 8.7-7 4.2-3.4 8.7-7 10-8 20.3-17.1 35.9-29 38.3-29.3 1.6-.2 6.9-.4 11.7-.6l8.9-.2-.6 4.7z"/></svg>