<?xml version="1.0" standalone="no"?>
<!DOCTYPE svg PUBLIC "-//W3C//DTD SVG 20010904//EN"
 "http://www.w3.org/TR/2001/REC-SVG-20010904/DTD/svg10.dtd">
<svg version="1.0" xmlns="http://www.w3.org/2000/svg"
 width="2646.000000pt" height="2646.000000pt" viewBox="0 0 2646.000000 2646.000000"
 preserveAspectRatio="xMidYMid meet">
<metadata>
Created by potrace 1.14, written by Peter Selinger 2001-2017
</metadata>
<g transform="translate(0.000000,2646.000000) scale(0.100000,-0.100000)"
fill="#000000" stroke="none">
<path d="M12617 20894 c-1 -1 -54 -4 -117 -8 -63 -3 -126 -8 -140 -11 -14 -3
-38 -7 -55 -10 -311 -45 -658 -189 -940 -389 -347 -247 -671 -611 -929 -1046
-87 -145 -256 -491 -256 -522 0 -4 33 -67 73 -140 41 -73 79 -143 85 -155 11
-20 6 -25 -71 -69 -45 -26 -124 -76 -175 -112 -230 -159 -273 -233 -274 -475
l-1 -118 -69 -72 c-239 -249 -763 -927 -985 -1274 -62 -97 -109 -206 -119
-276 -34 -233 -24 -587 27 -1014 l9 -81 -57 -59 c-91 -92 -132 -187 -159 -373
-12 -85 -6 -300 11 -378 15 -66 72 -185 99 -205 8 -6 7 -10 -2 -14 -36 -14
-176 -130 -247 -205 -140 -146 -243 -285 -421 -568 -171 -272 -266 -386 -397
-475 -64 -44 -64 -44 -32 -153 l15 -49 72 2 c40 2 87 5 103 8 17 4 45 9 64 12
18 3 65 17 104 30 39 14 73 23 75 20 3 -3 -24 -33 -60 -67 -56 -54 -253 -186
-490 -329 -36 -21 -43 -30 -42 -55 1 -16 2 -50 3 -75 l1 -46 78 -35 c193 -88
346 -117 589 -114 118 1 170 -1 165 -9 -3 -5 -39 -58 -79 -117 -40 -58 -73
-110 -73 -115 0 -4 6 -1 13 7 22 29 72 58 110 65 l37 7 -103 -166 c-56 -91
-107 -174 -112 -184 -6 -9 -17 -28 -26 -42 -9 -14 -51 -81 -94 -150 -138 -221
-362 -545 -419 -607 -6 -6 -29 -33 -51 -59 -73 -88 -243 -263 -330 -339 -226
-198 -418 -345 -968 -744 -301 -218 -457 -360 -602 -545 -16 -21 -38 -48 -47
-60 -10 -11 -21 -25 -26 -31 -119 -150 -191 -235 -257 -301 -86 -86 -83 -79
-89 -201 -1 -32 5 -37 64 -49 9 -2 56 -14 105 -28 593 -162 995 -344 1066
-482 19 -38 16 -85 -7 -122 -14 -21 -59 -53 -132 -93 -86 -47 -107 -139 -56
-243 31 -63 155 -218 225 -281 133 -119 194 -170 251 -212 35 -25 65 -49 68
-52 8 -10 207 -144 285 -191 251 -153 458 -215 548 -163 51 30 69 73 74 172 8
153 40 266 84 294 39 24 152 -30 265 -128 85 -73 94 -83 95 -105 1 -11 2 -23
3 -27 1 -5 6 -35 10 -68 4 -32 10 -68 12 -80 2 -11 7 -46 11 -77 5 -50 3 -58
-10 -58 -9 0 -31 -13 -49 -29 -28 -25 -32 -34 -29 -72 2 -50 33 -89 94 -120
20 -11 38 -25 39 -32 0 -6 2 -16 3 -22 0 -5 5 -32 9 -60 4 -27 9 -61 11 -75 8
-51 35 -236 39 -270 7 -51 16 -111 21 -140 3 -14 7 -47 10 -75 3 -27 8 -61 10
-75 6 -30 10 -58 25 -165 6 -44 14 -93 16 -110 3 -16 7 -43 9 -60 2 -16 17
-124 34 -240 17 -115 34 -228 36 -250 3 -22 7 -47 9 -55 3 -8 7 -42 11 -75 3
-33 8 -67 10 -75 2 -8 7 -37 10 -64 3 -27 7 -59 10 -70 2 -12 7 -39 10 -61 12
-89 17 -112 37 -165 29 -76 78 -148 141 -208 57 -53 119 -88 258 -145 46 -19
307 -128 579 -242 272 -114 529 -221 570 -237 41 -17 76 -32 78 -34 2 -1 -3
-38 -12 -81 -8 -43 -18 -109 -21 -147 -6 -80 6 -59 -265 -461 l-188 -279 34
-68 34 -68 63 -1 c34 -1 76 -2 92 -4 17 -1 91 -6 165 -9 74 -4 160 -9 190 -11
30 -2 111 -6 180 -9 69 -4 152 -9 185 -11 33 -3 112 -7 175 -10 142 -7 246
-12 370 -20 52 -3 136 -8 187 -11 l92 -5 27 53 c14 29 28 55 30 56 1 2 44 -6
94 -18 138 -32 366 -73 475 -85 60 -7 114 -14 140 -19 44 -8 187 -22 340 -32
55 -3 123 -8 150 -10 64 -4 541 -4 620 0 206 12 283 17 305 21 14 2 57 6 95
10 39 3 81 8 95 10 14 2 45 6 70 9 25 4 89 13 142 20 54 8 114 12 135 11 21
-2 94 -6 163 -10 69 -3 164 -8 211 -11 l85 -5 24 51 c13 28 27 53 31 56 4 2
29 -1 56 -7 26 -6 57 -13 68 -15 11 -2 31 -6 45 -9 52 -12 287 -56 320 -60 19
-2 55 -7 80 -10 300 -40 333 -43 620 -60 77 -5 540 -5 630 -1 207 11 376 25
490 41 14 2 52 7 85 11 33 3 69 8 80 10 11 2 60 9 108 16 88 12 89 12 83 37
-59 270 -114 435 -209 626 -172 348 -433 603 -748 732 l-65 27 -13 81 c-24
157 -106 352 -201 479 -21 28 -73 87 -116 131 -154 157 -141 130 -149 301 -4
82 -8 178 -10 214 -3 69 -15 242 -20 300 -2 19 -6 76 -9 125 -12 170 -27 305
-51 464 -14 92 -18 114 -31 191 -10 57 -12 73 -18 110 -5 34 -44 234 -50 255
-1 6 -11 36 -20 68 l-18 58 32 32 c40 40 144 178 148 195 1 7 5 29 8 50 3 20
9 62 14 92 6 30 12 73 15 95 3 22 7 51 10 65 3 14 8 48 11 75 3 28 8 53 9 56
2 3 7 28 11 55 9 70 20 87 134 204 195 201 228 249 319 463 68 156 178 474
251 720 13 42 28 77 34 77 17 0 155 -45 206 -68 25 -10 66 -29 93 -41 115 -53
237 -47 308 15 13 12 28 7 110 -35 87 -46 234 -101 304 -115 67 -14 82 -16
130 -23 57 -8 159 -9 192 -2 37 8 78 44 116 102 22 32 49 59 67 67 45 19 141
17 270 -6 14 -2 48 -7 75 -10 28 -3 53 -8 58 -11 4 -2 71 -6 150 -8 229 -7
267 16 431 257 33 49 44 58 70 59 428 8 423 7 511 36 90 29 136 67 215 176 22
31 41 47 55 47 12 0 77 -32 146 -71 68 -40 142 -82 164 -94 22 -13 130 -75
240 -138 164 -95 202 -113 216 -103 9 6 70 61 135 123 65 61 130 121 144 133
14 12 51 47 84 78 l58 56 -6 65 c-3 37 -8 120 -12 186 l-7 120 35 17 c53 25
157 126 177 172 37 84 35 78 56 181 9 44 19 127 23 185 12 191 5 653 -12 835
-2 17 -7 64 -10 105 -4 41 -9 86 -11 100 -2 14 -9 59 -14 100 -20 139 -41 239
-53 246 -4 3 -8 14 -8 25 0 30 -91 115 -152 143 -29 13 -79 32 -110 41 -49 14
-56 19 -52 38 2 11 5 36 6 55 3 39 2 39 83 46 51 5 254 26 400 41 22 3 128 14
235 25 107 11 211 22 230 25 19 2 64 7 100 11 66 7 99 10 113 13 4 0 5 13 3
29 -4 26 -9 81 -21 222 -3 36 -10 119 -15 185 -6 66 -13 152 -15 190 -3 39 -8
88 -10 110 -3 22 -8 81 -11 130 -4 50 -8 97 -9 105 -3 17 6 17 -190 -5 -150
-17 -175 -20 -275 -30 -36 -4 -72 -9 -81 -10 -9 -2 -52 -6 -95 -10 -43 -4 -87
-9 -97 -11 -9 -1 -54 -6 -99 -10 l-81 -7 6 25 c4 14 9 43 13 64 3 21 28 174
55 339 27 165 52 314 55 330 2 17 6 41 9 55 5 25 9 52 20 124 4 21 9 48 11 60
2 11 7 41 10 66 3 25 7 52 9 60 2 8 6 29 9 45 3 17 14 84 25 150 11 66 22 138
26 160 3 22 15 92 26 155 11 63 22 131 25 150 3 19 11 71 19 115 8 44 17 98
20 120 3 22 10 68 16 103 6 35 10 64 8 66 -2 1 -31 13 -64 25 l-60 22 -15 -23
c-43 -66 -246 -286 -255 -276 -31 33 -108 218 -130 314 -37 158 -49 216 -65
313 -38 233 -45 324 -44 546 0 115 5 202 14 240 7 33 15 65 16 70 11 50 58
108 96 121 77 24 197 -82 303 -268 23 -40 43 -65 52 -62 7 2 21 7 31 11 23 8
23 8 55 17 30 9 30 0 12 169 -8 75 -14 137 -20 202 -3 33 -8 76 -10 95 -6 47
-13 116 -24 235 -19 193 -23 230 -26 245 -2 8 -6 51 -10 95 -3 44 -8 91 -10
105 -2 14 -6 57 -10 95 -3 39 -8 81 -10 95 -2 14 -6 61 -10 105 -3 44 -8 94
-10 110 -7 57 -14 120 -20 190 -3 39 -8 81 -10 95 -3 14 -7 54 -10 90 -7 78
-14 152 -20 200 -2 19 -7 61 -10 93 -9 94 -16 170 -20 207 -4 37 -13 128 -20
195 -2 22 -9 85 -15 140 -5 55 -13 127 -16 159 l-5 59 -224 226 c-123 124
-295 299 -382 388 -217 222 -1072 1090 -1157 1174 -80 80 -65 87 -146 -66 -91
-172 -130 -244 -235 -440 -21 -38 -55 -101 -75 -140 -20 -38 -53 -99 -72 -135
-19 -36 -57 -105 -83 -155 -26 -49 -60 -112 -75 -140 -15 -27 -48 -88 -73
-135 -24 -47 -92 -173 -149 -280 -58 -107 -131 -244 -163 -305 -32 -60 -65
-123 -75 -140 -10 -16 -41 -75 -70 -130 -30 -55 -62 -115 -72 -134 -20 -35
-20 -74 2 -181 5 -25 11 -63 14 -85 3 -22 8 -51 10 -65 2 -14 7 -46 10 -71 4
-25 8 -57 10 -70 3 -13 7 -45 10 -70 4 -25 8 -57 10 -70 7 -39 16 -112 22
-160 3 -24 7 -55 9 -68 2 -13 7 -45 11 -70 3 -25 7 -56 9 -67 2 -12 6 -48 10
-80 4 -33 9 -70 11 -84 2 -14 6 -54 10 -90 3 -36 7 -72 9 -80 2 -8 6 -46 10
-85 4 -38 9 -77 10 -85 7 -38 15 -100 20 -155 4 -33 8 -73 10 -90 2 -16 6 -59
10 -95 3 -36 8 -81 10 -100 2 -19 7 -62 10 -95 8 -88 13 -142 20 -214 8 -75
12 -118 20 -226 4 -44 8 -96 10 -115 2 -19 6 -78 10 -130 4 -52 8 -96 10 -98
2 -2 29 -10 62 -17 66 -16 55 -23 124 82 240 367 453 209 453 -337 0 -94 -10
-264 -19 -330 -2 -14 -6 -52 -10 -85 -4 -32 -9 -68 -11 -80 -2 -11 -6 -34 -9
-52 -2 -18 -9 -59 -15 -93 -6 -33 -13 -72 -16 -87 -14 -77 -46 -181 -63 -203
-32 -44 -105 -37 -178 18 -29 21 -34 22 -47 9 -9 -8 -32 -25 -52 -37 -27 -17
-35 -28 -31 -44 5 -20 291 -875 304 -906 3 -8 7 -19 9 -25 1 -5 83 -249 182
-540 166 -493 178 -531 158 -532 -80 -4 -460 -15 -596 -18 -91 -2 -168 -3
-172 -4 -3 -1 -4 -101 -2 -223 10 -457 12 -575 13 -666 l1 -94 98 7 c53 4 99
9 102 10 3 2 48 6 100 10 52 4 103 9 112 10 10 2 55 7 101 10 45 4 89 8 97 10
8 3 53 7 100 10 47 4 96 8 110 11 14 2 59 6 100 10 41 3 83 7 95 9 18 3 17 2
-4 -13 -14 -9 -56 -46 -94 -82 -71 -67 -112 -125 -128 -183 -10 -36 -19 -41
-90 -52 -200 -30 -327 -48 -394 -56 -44 -5 -96 -11 -115 -14 -19 -2 -62 -7
-95 -10 -33 -4 -71 -8 -85 -10 -14 -2 -65 -7 -115 -10 -49 -4 -106 -8 -125
-10 -19 -2 -91 -7 -160 -10 -69 -4 -147 -8 -175 -10 -74 -6 -456 -6 -484 -1
-13 3 -49 8 -80 12 -78 8 -155 36 -276 98 l-104 53 23 49 c71 154 91 223 89
313 -2 69 -21 108 -78 156 -26 22 -54 47 -63 56 -18 16 -128 85 -175 109 -15
7 -26 16 -24 19 17 31 89 186 92 199 2 9 11 42 20 72 20 71 52 230 61 300 3
30 8 62 9 70 2 8 6 51 10 95 3 44 8 98 10 120 21 227 23 356 5 412 -18 55 -73
117 -128 145 -30 15 -47 30 -46 41 1 9 2 29 3 45 1 20 12 34 48 57 53 35 240
182 296 234 190 176 387 401 553 631 80 112 242 358 274 415 11 22 32 58 45
80 l23 40 -104 205 c-57 113 -123 241 -147 285 -92 171 -132 242 -160 290 -16
28 -38 64 -47 80 -111 191 -203 332 -309 475 -90 121 -213 250 -262 275 l-29
16 -1 137 c0 75 -2 144 -3 152 -2 8 -6 44 -10 80 -3 36 -8 79 -11 95 -19 115
-19 112 -45 215 -58 227 -140 357 -335 530 -146 130 -444 326 -700 461 l-135
71 -92 118 c-51 65 -131 170 -178 235 -184 253 -192 263 -255 311 -82 62 -281
155 -417 195 -52 14 -52 15 -38 74 5 22 12 56 15 75 3 19 17 91 30 160 13 69
27 141 30 160 3 19 8 42 10 50 2 8 6 26 9 40 5 33 25 140 30 166 2 12 7 37 10
55 3 19 10 59 16 89 6 30 13 66 16 80 2 14 7 35 9 48 8 36 -209 248 -405 396
-41 31 -79 60 -85 64 -116 89 -405 247 -595 325 -155 64 -412 141 -545 163
-22 4 -49 8 -60 10 -61 12 -162 24 -250 29 -94 7 -245 12 -248 9z m989 -16581
c-4 -27 -9 -66 -11 -88 -3 -22 -8 -58 -11 -80 -11 -79 -13 -91 -19 -146 -3
-31 -7 -65 -9 -75 -2 -11 -7 -48 -11 -84 -4 -36 -9 -72 -10 -80 -2 -8 -6 -42
-10 -75 -4 -33 -8 -69 -9 -81 -4 -33 -13 -41 -77 -75 -69 -37 -127 -92 -177
-166 l-34 -52 -37 24 c-20 14 -74 41 -121 61 -47 20 -87 38 -89 40 -2 2 -6 20
-8 41 -11 106 -65 273 -121 376 -15 28 -22 51 -16 56 5 4 44 35 87 70 42 34
87 70 100 80 203 171 359 290 383 293 16 2 69 4 117 6 l89 2 -6 -47z"/>
</g>
</svg>
